# xmcd CD database file
#
# Track frame offsets:
#	150
#	22782
#	37402
#	57117
#	63292
#	75345
#	111030
#	133992
#	155987
#	175530
#	178095
#	203630
#
# Disc length: 3151 seconds
#
# Revision: 0
# Processed by: cddbd v1.5PL3 Copyright (c) Steve Scherf et al.
# Submitted via: CDex 1.50beta9
#
DISCID=9c0c4d0c
DTITLE=Roger Waters - The Wall Live in Berlin　disc2
DYEAR=1900
DGENRE=Progressive Rock
TTITLE0=Hey You
TTITLE1=Is Anybody Out There ?
TTITLE2=Nobody Home
TTITLE3=Vera
TTITLE4=Bring The Boys Back Home
TTITLE5=Comfortably Numb
TTITLE6=In The Fresh
TTITLE7=Run Like Hell
TTITLE8=Waiting For The Worms
TTITLE9=Stop
TTITLE10=The Trial
TTITLE11=The Tide Is Turning
EXTD=
EXTT0=
EXTT1=
EXTT2=
EXTT3=
EXTT4=
EXTT5=
EXTT6=
EXTT7=
EXTT8=
EXTT9=
EXTT10=
EXTT11=
PLAYORDER=
